:version 1.10
:name ASF
:units
  mass 1
  length 1
  angle deg
:documentation
  ASF file generated by Kaydara
:root
  axis xyz
  order  tx ty tz rx ry rz
  position 0 0 0
  orientation 0 0 0
:bonedata
  begin
    id 1
    name SpineDummy
    direction 0.999998 -0.00179978 1.38929e-006
    length 3.60008
    axis 0 0 0 xyz
  end
  begin
    id 2
    name Spine
    direction 0.964365 0.262802 0.0305839
    length 8.13928
    axis 1.33928 -1.75354 15.2838 xyz
    dof rx ry rz
  end
  begin
    id 3
    name Spine1
    direction 0.811168 0.572065 0.12144
    length 7.14954
    axis 2.2224 -6.9761 35.2157 xyz
    dof rx ry rz
  end
  begin
    id 4
    name Neck
    direction 0 0 0
    length 0
    axis 2.2224 -6.9761 35.2157 xyz
    dof rx ry rz
  end
  begin
    id 5
    name HeadDummy
    direction 0.810939 0.572387 0.121455
    length 3.55534
    axis 2.2224 -6.9761 35.2157 xyz
  end
  begin
    id 6
    name Head
    direction 0.998226 -0.000232542 0.0595419
    length 7.35666
    axis -3.03688 -3.41352 -0.0133467 xyz
    dof rx ry rz
  end
  begin
    id 7
    name R_ClavicleDummy
    direction 0.531669 -0.194489 -0.824319
    length 2.49392
    axis 2.2224 -6.9761 35.2157 xyz
  end
  begin
    id 8
    name R_Clavicle
    direction -0.155119 0.0480802 -0.986725
    length 4.485
    axis -54.2764 80.6538 162.779 xyz
    dof rx ry rz
  end
  begin
    id 9
    name R_UpperArm
    direction -0.955567 0.200068 -0.216484
    length 10.1122
    axis -72.9943 12.5026 168.175 xyz
    dof rx ry rz
  end
  begin
    id 10
    name R_Forearm
    direction -0.61433 0.385743 0.688332
    length 9.39148
    axis -117.015 -43.4982 147.875 xyz
    dof rx ry rz
  end
  begin
    id 11
    name R_Hand
    direction -0.699429 0.0170333 0.714499
    length 3.66324
    axis -45.0303 -36.7097 175.478 xyz
    dof rx ry rz
  end
  begin
    id 12
    name L_ClavicleDummy
    direction 0.40287 -0.36502 0.839319
    length 2.49392
    axis 2.2224 -6.9761 35.2157 xyz
  end
  begin
    id 13
    name L_Clavicle
    direction -0.231271 -0.0726419 0.970174
    length 4.485
    axis 18.4357 -75.9711 -162.563 xyz
    dof rx ry rz
  end
  begin
    id 14
    name L_UpperArm
    direction -0.917494 0.144359 0.370629
    length 10.1122
    axis 56.0417 -21.7544 171.058 xyz
    dof rx ry rz
  end
  begin
    id 15
    name L_Forearm
    direction -0.496786 0.615074 -0.612281
    length 9.39148
    axis 89.8094 37.7546 128.927 xyz
    dof rx ry rz
  end
  begin
    id 16
    name L_Hand
    direction -0.409932 0.64962 -0.640274
    length 3.66324
    axis -0.424369 32.133 128.52 xyz
    dof rx ry rz
  end
  begin
    id 17
    name L_ThighDummy
    direction -1.84081e-006 1.87549e-006 1
    length 3.13049
    axis 0 0 0 xyz
  end
  begin
    id 18
    name L_Thigh
    direction -0.947739 0.307978 0.083308
    length 17.9961
    axis 173.219 -4.77873 161.998 xyz
    dof rx ry rz
  end
  begin
    id 19
    name L_Calf
    direction -0.728814 -0.684427 0.0197583
    length 13.3367
    axis 167.331 -1.13214 -136.799 xyz
    dof rx ry rz
  end
  begin
    id 20
    name L_Foot
    direction -0.9028 0.418719 0.0981191
    length 5.8674
    axis 163.436 11.5135 -155.37 xyz
    dof rx ry rz
  end
  begin
    id 21
    name L_Toe0
    direction -0.35341 0.886259 0.299411
    length 4.75286
    axis 169.316 -17.4222 111.74 xyz
    dof rx ry rz
  end
  begin
    id 22
    name R_ThighDummy
    direction 9.32778e-007 -8.82053e-007 -1
    length 3.13049
    axis 0 0 0 xyz
  end
  begin
    id 23
    name R_Thigh
    direction -0.925064 0.37528 -0.0585023
    length 17.9961
    axis -178.698 3.35385 157.919 xyz
    dof rx ry rz
  end
  begin
    id 24
    name R_Calf
    direction -0.68969 -0.718776 -0.0876886
    length 13.3367
    axis -160.504 5.03065 -133.817 xyz
    dof rx ry rz
  end
  begin
    id 25
    name R_Foot
    direction -0.857405 0.418858 -0.299022
    length 5.8674
    axis -161.328 4.38911 -154.413 xyz
    dof rx ry rz
  end
  begin
    id 26
    name R_Toe0
    direction -0.100745 0.952789 -0.286433
    length 4.75286
    axis 171.683 16.6445 96.0359 xyz
    dof rx ry rz
  end
:hierarchy
  begin
    root SpineDummy L_ThighDummy R_ThighDummy
    SpineDummy Spine
    Spine Spine1
    Spine1 Neck
    Neck HeadDummy R_ClavicleDummy L_ClavicleDummy
    HeadDummy Head
    R_ClavicleDummy R_Clavicle
    R_Clavicle R_UpperArm
    R_UpperArm R_Forearm
    R_Forearm R_Hand
    L_ClavicleDummy L_Clavicle
    L_Clavicle L_UpperArm
    L_UpperArm L_Forearm
    L_Forearm L_Hand
    L_ThighDummy L_Thigh
    L_Thigh L_Calf
    L_Calf L_Foot
    L_Foot L_Toe0
    R_ThighDummy R_Thigh
    R_Thigh R_Calf
    R_Calf R_Foot
    R_Foot R_Toe0
  end

:SAMPLES-PER-SECOND 30
:FULLY-SPECIFIED
:DEGREES
357
root  -12.1914 11.24 -14.3781 -36.3612 -51.2583 65.492
Spine  -5.51567 -8.17979 9.70336
Spine1  -3.34171 30.9082 4.59775
Neck  3.97569e-016 0 -2.38542e-015
Head  -5.57859 3.89768 38.5144
R_Clavicle  0.395948 -23.5549 4.2198
R_UpperArm  42.2888 -18.3353 62.8082
R_Forearm  17.9547 -20.1568 15.2797
R_Hand  -2.66818 17.3286 -28.8212
L_Clavicle  -0.501755 25.2987 2.64094
L_UpperArm  -48.7244 3.74771 29.5482
L_Forearm  32.6929 -0.885698 -1.04196
L_Hand  0.550236 -3.26389 25.5697
L_Thigh  7.54028 0.0303865 -7.32219
L_Calf  -33.5565 7.65598 -102.294
L_Foot  -2.99749 -18.9769 59.1434
L_Toe0  -3.60298 0.830401 9.29233
R_Thigh  -32.0371 -27.347 4.74598
R_Calf  23.3331 -5.69739 -18.0532
R_Foot  1.81219 4.56019 -7.42692
R_Toe0  -1.78853 -0.272785 -17.3235
358
root  -12.5118 10.3235 -14.3897 -26.9925 -50.0373 61.4729
Spine  -9.43409 -9.51311 15.3635
Spine1  -8.31253 41.5634 -2.95311
Neck  3.97569e-016 0 -2.38542e-015
Head  -6.98651 1.23191 37.5302
R_Clavicle  0.370226 -25.1363 4.04008
R_UpperArm  35.6108 -37.3877 81.9109
R_Forearm  12.7347 9.2994 -13.3404
R_Hand  -15.4919 44.9637 -51.8282
L_Clavicle  -0.469855 24.1747 2.98539
L_UpperArm  -47.9964 -7.25403 16.865
L_Forearm  36.2958 -6.20353 -7.23227
L_Hand  0.104154 -5.16608 22.7217
L_Thigh  9.07222 -6.07277 -10.8494
L_Calf  -43.8678 7.57992 -104.719
L_Foot  -9.58906 -24.8091 66.289
L_Toe0  -3.4296 0.594183 4.78042
R_Thigh  -26.757 -22.8629 7.21578
R_Calf  24.1051 -0.716559 -2.1989
R_Foot  2.11572 2.23768 -16.4584
R_Toe0  -1.78853 -0.272784 -17.3235
359
root  -12.7553 9.37704 -14.2622 -19.981 -49.2893 52.1373
Spine  -11.8817 -9.17108 22.5119
Spine1  -11.504 44.1576 -6.15246
Neck  3.97569e-016 0 -2.38542e-015
Head  -7.01471 0.950042 35.6379
R_Clavicle  0.410765 -23.0106 3.77805
R_UpperArm  33.5324 -44.2017 77.4244
R_Forearm  6.13198 11.3587 -13.7714
R_Hand  -35.2026 46.3378 -85.8956
L_Clavicle  -0.477469 19.5982 2.50533
L_UpperArm  -47.5627 -18.6855 2.38038
L_Forearm  35.3996 -8.10647 -9.48789
L_Hand  -0.218537 -7.1983 17.1265
L_Thigh  13.4045 -13.7175 -20.3361
L_Calf  -46.4132 7.44084 -108.446
L_Foot  -15.6897 -29.3537 69.9461
L_Toe0  -3.05799 0.49667 4.17824
R_Thigh  -12.2918 -19.7025 13.549
R_Calf  18.6629 1.07554 3.32487
R_Foot  2.91367 5.41565 -22.0803
R_Toe0  -1.78853 -0.272783 -17.3235
360
root  -13.1541 8.73021 -13.9122 -16.7386 -47.0884 42.1041
Spine  -14.4269 -8.86843 27.586
Spine1  -12.8412 42.0987 -4.32861
Neck  3.97569e-016 0 -2.38542e-015
Head  -5.36382 3.4334 36.0715
R_Clavicle  0.506402 -17.1703 3.96239
R_UpperArm  39.9711 -48.3029 62.4433
R_Forearm  -8.08734 6.69253 -7.97918
R_Hand  -38.7167 42.6699 -96.0558
L_Clavicle  -0.429736 11.5721 2.68809
L_UpperArm  -46.9324 -26.0702 -10.0417
L_Forearm  33.1325 -8.14669 -9.53409
L_Hand  -0.330586 -9.13396 11.664
L_Thigh  12.2595 -21.3825 -25.8859
L_Calf  -45.2757 7.35924 -110.312
L_Foot  -15.1156 -29.1317 67.0651
L_Toe0  -3.21744 0.629446 6.67908
R_Thigh  4.84824 -16.2041 20.1446
R_Calf  12.6591 -0.316684 -0.988899
R_Foot  3.61532 12.4756 -21.9773
R_Toe0  -1.78853 -0.272783 -17.3235
361
root  -13.8054 8.53021 -13.3812 -19.8085 -42.0777 37.2683
Spine  -17.6461 -9.9276 28.6047
Spine1  -14.4585 39.7743 -2.7961
Neck  3.97569e-016 0 -2.38542e-015
Head  -2.43185 5.13123 38.9531
R_Clavicle  0.673121 -10.6233 4.53877
R_UpperArm  44.4855 -50.5426 51.1211
R_Forearm  -17.2633 5.00508 -5.85015
R_Hand  -37.9047 42.0445 -95.6593
L_Clavicle  -0.54233 2.62944 4.03739
L_UpperArm  -46.364 -27.5216 -18.542
L_Forearm  30.0979 -8.17622 -9.56767
L_Hand  -0.216248 -9.94164 6.61602
L_Thigh  -1.1041 -29.0842 -18.78
L_Calf  -44.1384 7.46702 -107.869
L_Foot  -5.64956 -21.5108 57.5211
L_Toe0  -2.95059 0.552476 9.2862
R_Thigh  22.9372 -11.031 23.7533
R_Calf  10.0004 -1.49311 -4.63659
R_Foot  3.38134 11.5156 -14.4785
R_Toe0  -1.78853 -0.272783 -17.3235
362
root  -14.8276 8.87078 -12.4447 -27.0982 -33.6425 35.3189
Spine  -21.0055 -13.1375 27.1186
Spine1  -16.1064 39.2133 -3.44996
Neck  3.97569e-016 0 -2.38542e-015
Head  0.43382 2.88524 40.8723
R_Clavicle  0.84113 -4.90287 4.85011
R_UpperArm  47.2038 -50.6198 43.0779
R_Forearm  -20.0672 5.25187 -5.66627
R_Hand  -38.4024 43.2071 -95.0568
L_Clavicle  -0.735129 -3.79157 4.75362
L_UpperArm  -45.9196 -25.123 -23.6211
L_Forearm  25.9703 -9.39989 -11.0375
L_Hand  -0.0670119 -9.51965 2.87381
L_Thigh  -15.888 -38.0592 -5.05219
L_Calf  -32.836 7.67538 -101.783
L_Foot  3.46736 -10.2084 48.3025
L_Toe0  2.70746 -0.689883 9.8145
R_Thigh  35.3444 -5.06903 24.1138
R_Calf  9.82703 -2.35101 -7.34783
R_Foot  2.58756 7.67757 -7.47889
R_Toe0  -1.78853 -0.272784 -17.3235
363
root  -15.3294 9.77736 -10.6103 -35.0629 -24.7041 32.2376
Spine  -22.2497 -16.1953 26.7419
Spine1  -17.2928 39.0439 -4.80688
Neck  3.97569e-016 0 -2.38542e-015
Head  1.24958 -1.15351 40.1703
R_Clavicle  0.887687 -0.027181 4.51243
R_UpperArm  50.9084 -48.3913 36.6811
R_Forearm  -14.226 5.20328 -4.86276
R_Hand  -38.6199 41.3603 -97.6756
L_Clavicle  -0.527745 -6.2386 3.65762
L_UpperArm  -43.6608 -22.4411 -27.2628
L_Forearm  20.3271 -10.555 -12.442
L_Hand  -0.000868215 -8.19578 1.16119
L_Thigh  -31.1809 -37.3527 14.2683
L_Calf  -7.66176 7.82314 -92.3274
L_Foot  10.5977 2.60984 37.9991
L_Toe0  10.6269 -1.46237 1.56227
R_Thigh  36.0511 -0.453756 22.5392
R_Calf  12.6527 -3.83901 -11.9896
R_Foot  2.4407 6.18325 -12.381
R_Toe0  -1.7844 -0.272899 -17.3272
364
root  -15.9456 11.0471 -8.61658 -40.3853 -14.696 27.0439
Spine  -23.6109 -18.2996 27.3557
Spine1  -18.734 37.9157 -7.26435
Neck  3.97569e-016 0 -2.38542e-015
Head  -1.31198 -2.71363 38.3746
R_Clavicle  0.822907 3.41343 3.93741
R_UpperArm  54.5181 -45.4505 32.1639
R_Forearm  -6.67601 4.38165 -3.36312
R_Hand  -38.0701 37.5868 -101.621
L_Clavicle  0.134192 -6.95459 0.288498
L_UpperArm  -38.5108 -20.3592 -32.8316
L_Forearm  14.0821 -8.42521 -9.86419
L_Hand  0.0125207 -6.01751 1.23459
L_Thigh  -38.8364 -35.3072 24.3082
L_Calf  7.40537 7.75871 -82.298
L_Foot  5.84667 -0.660527 28.577
L_Toe0  6.12055 -0.63355 -0.977865
R_Thigh  29.2695 1.01333 17.6657
R_Calf  15.9688 -4.82678 -15.1466
R_Foot  -1.12587 -5.19656 -3.17624
R_Toe0  -1.8285 -0.271683 -17.2882
365
root  -16.1114 12.3826 -6.6512 -44.6938 -5.61533 24.5096
Spine  -23.7332 -17.2751 26.6209
Spine1  -19.8016 35.7621 -9.14363
Neck  3.97569e-016 0 -2.38542e-015
Head  -6.12937 -1.79396 36.1459
R_Clavicle  0.78584 5.30298 3.66946
R_UpperArm  56.2915 -42.6163 30.2411
R_Forearm  3.79394 5.1281 -3.50135
R_Hand  -36.3127 34.1941 -103.36
L_Clavicle  0.564751 -7.37159 -1.7834
L_UpperArm  -32.9881 -17.7028 -41.0456
L_Forearm  8.84254 -2.08005 -2.4172
L_Hand  0.0336084 -4.44263 1.74285
L_Thigh  -38.4979 -32.2037 26.2885
L_Calf  0.497641 7.54832 -74.434
L_Foot  3.4969 -6.17894 31.2004
L_Toe0  -0.00601663 0.0972955 -6.60314
R_Thigh  20.1042 -1.06329 16.0013
R_Calf  18.0699 -3.25397 -10.2219
R_Foot  -7.00501 -21.6238 3.16863
R_Toe0  -1.94151 -0.268565 -17.1884
366
root  -15.4725 13.6608 -5.01277 -49.8458 0.407512 25.8092
Spine  -22.1034 -13.7749 25.817
Spine1  -20.113 34.2562 -9.86085
Neck  3.97569e-016 0 -2.38542e-015
Head  -9.52682 -2.29626 33.3858
R_Clavicle  0.75114 6.90372 3.4527
R_UpperArm  57.113 -37.8357 27.9173
R_Forearm  12.7676 6.75888 -4.69557
R_Hand  -35.5126 34.0857 -102.141
L_Clavicle  0.613784 -6.74123 -2.17498
L_UpperArm  -30.2279 -14.8892 -47.0397
L_Forearm  4.48722 5.95041 6.90373
L_Hand  0.0175791 -4.39175 0.488596
L_Thigh  -28.1574 -23.4781 22.1553
L_Calf  -8.95315 7.19912 -66.8295
L_Foot  4.18492 -4.36819 29.8332
L_Toe0  0.505156 0.034446 -6.1361
R_Thigh  11.3299 -0.991518 19.1204
R_Calf  18.9277 0.416008 1.26645
R_Foot  -6.80576 -26.9702 -2.96801
R_Toe0  -1.77613 -0.273129 -17.3345
367
root  -14.7782 14.8885 -3.65955 -56.1769 4.52177 27.1936
Spine  -21.5445 -11.9138 27.4119
Spine1  -20.3356 34.6891 -9.98263
Neck  3.97569e-016 0 -2.38542e-015
Head  -8.88984 -5.82585 30.8336
R_Clavicle  0.573521 9.20286 2.6791
R_UpperArm  57.6518 -30.5147 22.9424
R_Forearm  16.1595 7.49626 -5.34528
R_Hand  -35.0536 36.0544 -98.6256
L_Clavicle  0.571045 -4.78235 -2.42961
L_UpperArm  -30.5697 -13.3994 -46.9263
L_Forearm  -0.212495 13.6081 16.2256
L_Hand  0.00672461 -5.13901 -2.13742
L_Thigh  -16.3187 -16.1095 15.2419
L_Calf  -9.86566 6.69604 -58.8539
L_Foot  4.33338 -0.578092 21.4346
L_Toe0  0.505156 0.034446 -6.1361
R_Thigh  5.08396 -0.287075 22.9608
R_Calf  17.1046 2.26757 7.08313
R_Foot  -1.809 -12.945 -7.92131
R_Toe0  -1.78853 -0.272788 -17.3235
